<svg width="24" height="24" viewBox="0 0 24 24" fill="none" xmlns="http://www.w3.org/2000/svg">
<path d="M9 6H7V4C7 2.896 7.896 2 9 2H15C16.104 2 17 2.896 17 4V6H15V4.5C15 4.224 14.776 4 14.5 4H9.5C9.224 4 9 4.224 9 4.5V6ZM23 7C23.5523 7 24 7.44772 24 8V21C24 21.5523 23.5523 22 23 22H1C0.447716 22 0 21.5523 0 21V8C0 7.44772 0.447715 7 1 7H23ZM16 11.519L15.774 11C13.67 12.309 12.539 13.295 10.825 15.239C9.915 14.589 9.401 14.291 8.59 13.899L7.897 14.54C9.283 15.825 10.036 16.672 11.165 18C12.994 14.719 14.265 13.033 16 11.519Z" fill="#0771DB"/>
</svg>
