<svg width="20" height="20" viewBox="0 0 20 20" fill="none" xmlns="http://www.w3.org/2000/svg">
<path d="M15.5 5V3.3335C15.5 3.1495 15.3235 3 15.107 3H4.8925C4.6765 3 4.5 3.1495 4.5 3.3335V5C4.5 5.1845 4.6765 5.3335 4.8925 5.3335H5.482V5.8315C5.482 7.5405 6.63 9.098 8.4285 9.8575V10.142C6.6305 10.901 5.482 12.4565 5.482 14.1665V14.6675H4.8925C4.6765 14.667 4.5 14.8165 4.5 14.9995V16.667C4.5 16.851 4.6765 17 4.8925 17H15.107C15.3235 17 15.5 16.851 15.5 16.667V14.9995C15.5 14.8165 15.3235 14.667 15.107 14.667H14.5175V14.166C14.5175 12.456 13.369 10.8995 11.5695 10.1405V9.858C13.369 9.099 14.5175 7.542 14.5175 5.831V5.333H15.107C15.3235 5.3335 15.5 5.1845 15.5 5ZM14.286 15.333H14.7135V16.333H5.2855V15.333H5.875H14.125H14.286ZM13.59 6.783C13.516 7.07 13.307 7.4495 13.307 7.4495C12.85 8.277 12.049 8.9585 11.0195 9.341C10.8765 9.394 10.7845 9.514 10.7845 9.6465V10.353C10.7845 10.4855 10.8765 10.605 11.0195 10.6585C12.6675 11.2715 13.733 12.648 13.733 14.1665V14.668H13.39H12.3825H7.6165H6.6175H6.2675V14.167C6.2675 12.6485 7.3325 11.2725 8.979 10.659C9.122 10.6065 9.214 10.487 9.214 10.3545V9.645C9.214 9.513 9.122 9.3935 8.979 9.34C7.9505 8.957 7.15 8.2765 6.693 7.449C6.521 7.169 6.4105 6.7825 6.4105 6.7825C6.317 6.476 6.2675 6.1565 6.2675 5.831V5.3385H13.7325V5.831C13.7325 6.1565 13.6825 6.4765 13.59 6.783ZM14.714 4.6665H14.125C14.102 4.6665 14.08 4.6685 14.058 4.6715H5.9415C5.92 4.6685 5.898 4.6665 5.875 4.6665H5.2855V3.6665H14.7135L14.714 4.6665Z" fill="#045BCF"/>
</svg>
