<svg width="24" height="24" viewBox="0 0 24 24" fill="none" xmlns="http://www.w3.org/2000/svg">
<path d="M21.491 5.25H12.4219V2.92547C12.4221 2.73206 12.3841 2.54052 12.3101 2.3618C12.2362 2.18308 12.1278 2.02069 11.991 1.88394C11.8542 1.74718 11.6918 1.63874 11.5131 1.56482C11.3344 1.49089 11.1428 1.45294 10.9494 1.45313H2.92536C2.73197 1.45296 2.54044 1.49093 2.36174 1.56486C2.18304 1.6388 2.02067 1.74724 1.88392 1.884C1.74718 2.02075 1.63874 2.18313 1.56482 2.36184C1.4909 2.54055 1.45294 2.73208 1.45313 2.92547V21.0745C1.45347 21.4649 1.60869 21.8392 1.88471 22.1152C2.16073 22.3913 2.535 22.5465 2.92536 22.5469H10.9494C11.3398 22.5465 11.7141 22.3913 11.9902 22.1153C12.2663 21.8392 12.4215 21.4649 12.4219 21.0745V13.6875H21.4911C21.7711 13.6875 22.0397 13.5763 22.2376 13.3783C22.4356 13.1803 22.5469 12.9117 22.5469 12.6317V6.3059C22.5469 6.16724 22.5196 6.02993 22.4665 5.90182C22.4134 5.77372 22.3357 5.65731 22.2376 5.55926C22.1396 5.46121 22.0232 5.38344 21.8951 5.33037C21.7669 5.27731 21.6296 5.25 21.491 5.25ZM5.88281 2.3475H7.99219C8.13205 2.3475 8.26618 2.40306 8.36508 2.50196C8.46397 2.60085 8.51953 2.73498 8.51953 2.87484C8.51953 3.0147 8.46397 3.14884 8.36508 3.24773C8.26618 3.34663 8.13205 3.40219 7.99219 3.40219H5.88281C5.74295 3.40219 5.60882 3.34663 5.50992 3.24773C5.41103 3.14884 5.35547 3.0147 5.35547 2.87484C5.35547 2.73498 5.41103 2.60085 5.50992 2.50196C5.60882 2.40306 5.74295 2.3475 5.88281 2.3475ZM7.99198 21.649H5.88261C5.74275 21.649 5.60861 21.5934 5.50972 21.4945C5.41082 21.3956 5.35526 21.2615 5.35526 21.1216C5.35526 20.9818 5.41082 20.8477 5.50972 20.7488C5.60861 20.6499 5.74275 20.5943 5.88261 20.5943H7.99198C8.13184 20.5943 8.26597 20.6499 8.36487 20.7488C8.46377 20.8477 8.51933 20.9818 8.51933 21.1216C8.51933 21.2615 8.46377 21.3956 8.36487 21.4945C8.26597 21.5934 8.13184 21.649 7.99198 21.649ZM11.4937 19.6992H2.38113V4.30078H11.4937V5.25H5.87414C5.59672 5.25 5.33066 5.3602 5.1345 5.55637C4.93833 5.75254 4.82813 6.01859 4.82813 6.29601V12.6405C4.82812 12.778 4.8552 12.9141 4.90782 13.0412C4.96044 13.1682 5.03756 13.2836 5.13478 13.3808C5.232 13.4781 5.34742 13.5552 5.47445 13.6078C5.60148 13.6604 5.73763 13.6875 5.87512 13.6875H7.78125V15.382C7.78125 15.4851 7.81183 15.5859 7.86912 15.6716C7.9264 15.7574 8.00783 15.8242 8.10309 15.8636C8.19836 15.9031 8.30319 15.9134 8.40432 15.8933C8.50545 15.8732 8.59835 15.8235 8.67126 15.7506L10.7344 13.6875H11.4937V19.6992ZM10.3504 9.85266C10.4714 9.92293 10.5597 10.0382 10.5961 10.1734C10.6324 10.3085 10.6139 10.4526 10.5444 10.5741C10.5101 10.6345 10.4642 10.6875 10.4092 10.7301C10.3543 10.7726 10.2914 10.8038 10.2243 10.8219C10.1572 10.8399 10.0872 10.8445 10.0183 10.8352C9.9494 10.826 9.88304 10.8032 9.82304 10.7681L9.15234 10.38V11.1563C9.15234 11.2961 9.09679 11.4302 8.99789 11.5291C8.89899 11.628 8.76486 11.6836 8.625 11.6836C8.48514 11.6836 8.35101 11.628 8.25211 11.5291C8.15322 11.4302 8.09766 11.2961 8.09766 11.1563V10.38L7.42673 10.7681C7.36674 10.8032 7.30037 10.826 7.23149 10.8352C7.16261 10.8445 7.09259 10.8399 7.02548 10.8219C6.95837 10.8038 6.89551 10.7726 6.84055 10.7301C6.7856 10.6875 6.73963 10.6345 6.70533 10.5741C6.63599 10.4525 6.61748 10.3085 6.65383 10.1734C6.69018 10.0383 6.77844 9.923 6.89939 9.85266L7.57031 9.46875L6.89939 9.08063C6.778 9.0107 6.68935 8.89541 6.65296 8.76012C6.61657 8.62483 6.63542 8.48063 6.70535 8.35924C6.77528 8.23784 6.89056 8.1492 7.02585 8.11281C7.16114 8.07642 7.30534 8.09526 7.42673 8.16519L8.09766 8.55328V7.78125C8.09766 7.64139 8.15322 7.50726 8.25211 7.40836C8.35101 7.30947 8.48514 7.25391 8.625 7.25391C8.76486 7.25391 8.89899 7.30947 8.99789 7.40836C9.09679 7.50726 9.15234 7.64139 9.15234 7.78125V8.55328L9.82306 8.16519C9.94445 8.09526 10.0887 8.07642 10.2239 8.11281C10.3592 8.1492 10.4745 8.23784 10.5445 8.35924C10.6144 8.48063 10.6332 8.62483 10.5968 8.76012C10.5604 8.89541 10.4718 9.0107 10.3504 9.08063L9.67969 9.46875L10.3504 9.85266ZM15.4129 9.85266C15.5339 9.92293 15.6222 10.0382 15.6586 10.1734C15.6949 10.3085 15.6764 10.4526 15.6069 10.5741C15.5726 10.6345 15.5267 10.6875 15.4717 10.7301C15.4168 10.7726 15.3539 10.8038 15.2868 10.8219C15.2197 10.8399 15.1497 10.8445 15.0808 10.8352C15.0119 10.826 14.9455 10.8032 14.8855 10.7681L14.2148 10.38V11.1563C14.2148 11.2961 14.1593 11.4302 14.0604 11.5291C13.9615 11.628 13.8274 11.6836 13.6875 11.6836C13.5476 11.6836 13.4135 11.628 13.3146 11.5291C13.2157 11.4302 13.1602 11.2961 13.1602 11.1563V10.38L12.4892 10.7681C12.4292 10.8032 12.3629 10.826 12.294 10.8352C12.2251 10.8445 12.1551 10.8399 12.088 10.8219C12.0209 10.8038 11.958 10.7726 11.9031 10.7301C11.8481 10.6875 11.8021 10.6345 11.7678 10.5741C11.6985 10.4525 11.68 10.3085 11.7163 10.1734C11.7527 10.0383 11.8409 9.923 11.9619 9.85266L12.6328 9.46875L11.9619 9.08063C11.8405 9.0107 11.7519 8.89541 11.7155 8.76012C11.6791 8.62483 11.6979 8.48063 11.7678 8.35924C11.8378 8.23784 11.9531 8.1492 12.0884 8.11281C12.2236 8.07642 12.3678 8.09526 12.4892 8.16519L13.1602 8.55328V7.78125C13.1602 7.64139 13.2157 7.50726 13.3146 7.40836C13.4135 7.30947 13.5476 7.25391 13.6875 7.25391C13.8274 7.25391 13.9615 7.30947 14.0604 7.40836C14.1593 7.50726 14.2148 7.64139 14.2148 7.78125V8.55328L14.8856 8.16519C15.007 8.09526 15.1512 8.07642 15.2864 8.11281C15.4217 8.1492 15.537 8.23784 15.6069 8.35924C15.6769 8.48063 15.6957 8.62483 15.6593 8.76012C15.6229 8.89541 15.5343 9.0107 15.4129 9.08063L14.7422 9.46875L15.4129 9.85266ZM20.4754 9.85266C20.5964 9.92293 20.6847 10.0382 20.7211 10.1734C20.7574 10.3085 20.7389 10.4526 20.6694 10.5741C20.6351 10.6345 20.5892 10.6875 20.5342 10.7301C20.4793 10.7726 20.4164 10.8038 20.3493 10.8219C20.2822 10.8399 20.2122 10.8445 20.1433 10.8352C20.0744 10.826 20.008 10.8032 19.948 10.7681L19.2773 10.38V11.1563C19.2773 11.2961 19.2218 11.4302 19.1229 11.5291C19.024 11.628 18.8899 11.6836 18.75 11.6836C18.6101 11.6836 18.476 11.628 18.3771 11.5291C18.2782 11.4302 18.2227 11.2961 18.2227 11.1563V10.38L17.5517 10.7681C17.4917 10.8032 17.4254 10.826 17.3565 10.8352C17.2876 10.8445 17.2176 10.8399 17.1505 10.8219C17.0834 10.8038 17.0205 10.7726 16.9656 10.7301C16.9106 10.6875 16.8646 10.6345 16.8303 10.5741C16.761 10.4525 16.7425 10.3085 16.7788 10.1734C16.8152 10.0383 16.9034 9.923 17.0244 9.85266L17.6953 9.46875L17.0244 9.08063C16.903 9.0107 16.8144 8.89541 16.778 8.76012C16.7416 8.62483 16.7604 8.48063 16.8303 8.35924C16.9003 8.23784 17.0156 8.1492 17.1509 8.11281C17.2861 8.07642 17.4303 8.09526 17.5517 8.16519L18.2227 8.55328V7.78125C18.2227 7.64139 18.2782 7.50726 18.3771 7.40836C18.476 7.30947 18.6101 7.25391 18.75 7.25391C18.8899 7.25391 19.024 7.30947 19.1229 7.40836C19.2218 7.50726 19.2773 7.64139 19.2773 7.78125V8.55328L19.9481 8.16519C20.0082 8.13056 20.0745 8.10812 20.1433 8.09913C20.2121 8.09014 20.282 8.09479 20.3489 8.11281C20.4159 8.13083 20.4787 8.16186 20.5337 8.20415C20.5887 8.24643 20.6348 8.29913 20.6694 8.35924C20.7041 8.41934 20.7265 8.48568 20.7355 8.55447C20.7445 8.62325 20.7399 8.69313 20.7218 8.76012C20.7038 8.82711 20.6728 8.88989 20.6305 8.94488C20.5882 8.99987 20.5355 9.046 20.4754 9.08063L19.8047 9.46875L20.4754 9.85266Z" fill="#045BCF"/>
</svg>
