<svg width="15" height="15" viewBox="0 0 15 15" fill="none" xmlns="http://www.w3.org/2000/svg">
<g clip-path="url(#clip0_1796_8943)">
<path d="M6.51282 5.82386C7.09144 5.19626 7.41025 4.3544 7.41025 3.45313C7.41025 1.73714 6.18456 0 3.84153 0C2.75112 0 1.83124 0.374523 1.18118 1.08306C0.60536 1.71075 0.28833 2.55243 0.28833 3.45313C0.28833 5.16931 1.50883 6.90636 3.84153 6.90636C4.936 6.90641 5.85991 6.53216 6.51282 5.82386ZM3.84153 1.60559C5.12532 1.60559 5.70998 2.56393 5.70998 3.45435C5.70998 3.93871 5.54699 4.3871 5.25078 4.71676C4.92032 5.08497 4.44008 5.27967 3.86234 5.27967C2.54609 5.27967 1.94646 4.32142 1.94646 3.4311C1.94646 2.52258 2.53252 1.60559 3.84153 1.60559Z" fill="#045BCF"/>
<path d="M12.363 1.33213C12.1506 1.33597 11.8607 1.46835 11.7187 1.62624L1.17838 13.3453C1.0364 13.5032 1.13698 13.7247 1.34931 13.7247H2.03909H2.72886C2.9412 13.7247 3.23081 13.5952 3.37256 13.4371L13.8477 1.72045C13.9894 1.56219 13.98 1.30472 13.6292 1.30481L12.363 1.33213Z" fill="#045BCF"/>
<path d="M11.2109 8.22498C10.1415 8.22498 9.2391 8.59257 8.60135 9.28759C8.03652 9.90312 7.72534 10.7289 7.72534 11.6125C7.72534 13.2959 8.92264 15 11.2109 15C12.2849 15 13.191 14.6327 13.8316 13.938C14.3992 13.3223 14.7119 12.4964 14.7119 11.6125C14.7118 9.92918 13.5093 8.22498 11.2109 8.22498ZM11.2316 13.4455C9.95096 13.4455 9.36747 12.4838 9.36747 11.5907C9.36747 11.1043 9.53036 10.6543 9.82634 10.3234C10.1563 9.95407 10.635 9.7589 11.2109 9.7589C12.4916 9.7589 13.0749 10.7204 13.0749 11.6137C13.0749 12.1 12.9119 12.5502 12.6162 12.8811C12.2861 13.2503 11.8073 13.4455 11.2316 13.4455Z" fill="#045BCF"/>
</g>
<defs>
<clipPath id="clip0_1796_8943">
<rect width="15" height="15" fill="white"/>
</clipPath>
</defs>
</svg>
