<svg width="24" height="24" viewBox="0 0 24 24" fill="none" xmlns="http://www.w3.org/2000/svg">
<path d="M14 20.5C14 21.329 14.672 22 15.5 22C16.328 22 17 21.329 17 20.5C17 19.672 16.328 19 15.5 19C14.672 19 14 19.672 14 20.5ZM10.5 19C11.328 19 12 19.671 12 20.5C12 21.329 11.328 22 10.5 22C9.672 22 9 21.329 9 20.5C9 19.672 9.672 19 10.5 19ZM3.41148 2C3.87208 2 4.2731 2.31461 4.38274 2.76197L7.53363 15.619C7.58845 15.8427 7.78896 16 8.01926 16H9.10033C9.42192 16 9.65988 15.7008 9.5875 15.3875L7.47099 6.22507C7.32623 5.5984 7.80216 5 8.44533 5H22.5839C23.2746 5 23.7573 5.68362 23.5262 6.33454L19.6212 17.3345C19.4796 17.7335 19.1022 18 18.6789 18H6.92818C6.46866 18 6.06829 17.6868 5.95762 17.2408L2.86038 4.75916C2.74971 4.31317 2.34934 4 1.88982 4H1.27705C0.817131 4 0.416515 3.6863 0.306229 3.23979C0.150505 2.60934 0.627647 2 1.27705 2H3.41148Z" fill="#0771DB"/>
</svg>
